<svg width="128" height="128" viewBox="0 0 128 128" fill="none" xmlns="http://www.w3.org/2000/svg">
<path fill-rule="evenodd" clip-rule="evenodd" d="M120 32.5054C120 32.1443 119.808 31.8106 119.495 31.63L65.0049 0.135436C64.6925 -0.0451453 64.3075 -0.0451453 63.9951 0.135436L9.5049 31.63C9.19247 31.8106 9 32.1443 9 32.5054V95.4945C9 95.8557 9.19247 96.1894 9.5049 96.37L63.9951 127.865C64.3075 128.045 64.6925 128.045 65.0049 127.865L119.495 96.37C119.808 96.1894 120 95.8557 120 95.4945V32.5054ZM16.9248 80.797C16.4132 81.683 15.0588 81.32 15.0588 80.2969V47.703C15.0588 46.6799 16.4132 46.317 16.9248 47.203L26.3345 63.5C26.5132 63.8094 26.5132 64.1906 26.3345 64.5L16.9248 80.797ZM29.2563 71.56C29.6412 70.8933 30.6034 70.8933 30.9883 71.56L55.3118 113.686C55.8235 114.573 54.8314 115.564 53.9453 115.052L17.4709 93.9704C16.9929 93.6942 16.8292 93.0828 17.1053 92.6046L29.2563 71.56ZM95.0899 63.5C95.2686 63.8094 95.2686 64.1906 95.0899 64.5L65.366 115.98C64.9811 116.646 64.0189 116.646 63.634 115.98L33.9101 64.5C33.7314 64.1906 33.7314 63.8094 33.9101 63.5L63.634 12.0204C64.0189 11.3537 64.9811 11.3537 65.366 12.0204L95.0899 63.5ZM111.895 92.6046C112.171 93.0828 112.007 93.6942 111.529 93.9704L75.0547 115.052C74.1687 115.564 73.1765 114.573 73.6883 113.686L98.0117 71.56C98.3966 70.8933 99.3588 70.8933 99.7437 71.56L111.895 92.6046ZM102.665 64.5C102.487 64.1906 102.487 63.8094 102.665 63.5L112.075 47.203C112.587 46.317 113.941 46.68 113.941 47.703V80.2969C113.941 81.32 112.587 81.6829 112.075 80.7969L102.665 64.5ZM75.0547 12.9479C74.1687 12.4357 73.1766 13.4274 73.6883 14.3137L98.0117 56.44C98.3966 57.1066 99.3588 57.1066 99.7437 56.44L111.895 35.3954C112.171 34.9172 112.007 34.3058 111.529 34.0295L75.0547 12.9479ZM55.3117 14.3137C55.8234 13.4274 54.8313 12.4357 53.9453 12.9478L17.4709 34.0295C16.9929 34.3058 16.8292 34.9172 17.1053 35.3954L29.2563 56.44C29.6412 57.1066 30.6034 57.1066 30.9883 56.44L55.3117 14.3137Z" fill="#15567E"/>
</svg>
