<?xml version="1.0" encoding="UTF-8" standalone="no"?>
<!-- Created with Inkscape (http://www.inkscape.org/) -->

<svg
   width="31.581846mm"
   height="29.518829mm"
   viewBox="0 0 119.36446 111.56723"
   version="1.1"
   id="svg1"
   xml:space="preserve"
   inkscape:version="1.4.2 (f4327f4, 2025-05-13)"
   sodipodi:docname="Merchanting.svg"
   xmlns:inkscape="http://www.inkscape.org/namespaces/inkscape"
   xmlns:sodipodi="http://sodipodi.sourceforge.net/DTD/sodipodi-0.dtd"
   xmlns="http://www.w3.org/2000/svg"
   xmlns:svg="http://www.w3.org/2000/svg"><sodipodi:namedview
     id="namedview1"
     pagecolor="#505050"
     bordercolor="#eeeeee"
     borderopacity="1"
     inkscape:showpageshadow="0"
     inkscape:pageopacity="0"
     inkscape:pagecheckerboard="0"
     inkscape:deskcolor="#505050"
     inkscape:document-units="mm"
     inkscape:zoom="8.174467"
     inkscape:cx="58.841757"
     inkscape:cy="59.147587"
     inkscape:window-width="2560"
     inkscape:window-height="1369"
     inkscape:window-x="2552"
     inkscape:window-y="-8"
     inkscape:window-maximized="1"
     inkscape:current-layer="layer1" /><defs
     id="defs1"><inkscape:path-effect
       effect="bspline"
       id="path-effect24"
       is_visible="true"
       lpeversion="1.3"
       weight="33.333333"
       steps="2"
       helper_size="0"
       apply_no_weight="true"
       apply_with_weight="true"
       only_selected="false"
       uniform="false" /><inkscape:path-effect
       effect="bspline"
       id="path-effect23"
       is_visible="true"
       lpeversion="1.3"
       weight="33.333333"
       steps="2"
       helper_size="0"
       apply_no_weight="true"
       apply_with_weight="true"
       only_selected="false"
       uniform="false" /><inkscape:path-effect
       effect="bspline"
       id="path-effect22"
       is_visible="true"
       lpeversion="1.3"
       weight="33.333333"
       steps="2"
       helper_size="0"
       apply_no_weight="true"
       apply_with_weight="true"
       only_selected="false"
       uniform="false" /><inkscape:path-effect
       effect="bspline"
       id="path-effect21"
       is_visible="true"
       lpeversion="1.3"
       weight="33.333333"
       steps="2"
       helper_size="0"
       apply_no_weight="true"
       apply_with_weight="true"
       only_selected="false"
       uniform="false" /><inkscape:path-effect
       effect="bspline"
       id="path-effect20"
       is_visible="true"
       lpeversion="1.3"
       weight="33.333333"
       steps="2"
       helper_size="0"
       apply_no_weight="true"
       apply_with_weight="true"
       only_selected="false"
       uniform="false" /><inkscape:path-effect
       effect="bspline"
       id="path-effect19"
       is_visible="true"
       lpeversion="1.3"
       weight="33.333333"
       steps="2"
       helper_size="0"
       apply_no_weight="true"
       apply_with_weight="true"
       only_selected="false"
       uniform="false" /><inkscape:path-effect
       effect="bspline"
       id="path-effect18"
       is_visible="true"
       lpeversion="1.3"
       weight="33.333333"
       steps="2"
       helper_size="0"
       apply_no_weight="true"
       apply_with_weight="true"
       only_selected="false"
       uniform="false" /><inkscape:path-effect
       effect="bspline"
       id="path-effect17"
       is_visible="true"
       lpeversion="1.3"
       weight="33.333333"
       steps="2"
       helper_size="0"
       apply_no_weight="true"
       apply_with_weight="true"
       only_selected="false"
       uniform="false" /><inkscape:path-effect
       effect="bspline"
       id="path-effect16"
       is_visible="true"
       lpeversion="1.3"
       weight="33.333333"
       steps="2"
       helper_size="0"
       apply_no_weight="true"
       apply_with_weight="true"
       only_selected="false"
       uniform="false" /><inkscape:path-effect
       effect="bspline"
       id="path-effect15"
       is_visible="true"
       lpeversion="1.3"
       weight="33.333333"
       steps="2"
       helper_size="0"
       apply_no_weight="true"
       apply_with_weight="true"
       only_selected="false"
       uniform="false" /><inkscape:path-effect
       effect="bspline"
       id="path-effect14"
       is_visible="true"
       lpeversion="1.3"
       weight="33.333333"
       steps="2"
       helper_size="0"
       apply_no_weight="true"
       apply_with_weight="true"
       only_selected="false"
       uniform="false" /><inkscape:path-effect
       effect="bspline"
       id="path-effect13"
       is_visible="true"
       lpeversion="1.3"
       weight="33.333333"
       steps="2"
       helper_size="0"
       apply_no_weight="true"
       apply_with_weight="true"
       only_selected="false"
       uniform="false" /><inkscape:path-effect
       effect="bspline"
       id="path-effect12"
       is_visible="true"
       lpeversion="1.3"
       weight="33.333333"
       steps="2"
       helper_size="0"
       apply_no_weight="true"
       apply_with_weight="true"
       only_selected="false"
       uniform="false" /><inkscape:path-effect
       effect="fillet_chamfer"
       id="path-effect11"
       is_visible="true"
       lpeversion="1"
       nodesatellites_param="F,0,0,1,0,1.2983296,0,1 @ F,0,1,1,0,1.2983296,0,1 @ F,0,1,1,0,1.2983296,0,1 @ F,0,1,1,0,1.2983296,0,1"
       radius="0"
       unit="px"
       method="auto"
       mode="F"
       chamfer_steps="1"
       flexible="false"
       use_knot_distance="true"
       apply_no_radius="true"
       apply_with_radius="true"
       only_selected="false"
       hide_knots="false" /><inkscape:path-effect
       effect="fillet_chamfer"
       id="path-effect10"
       is_visible="true"
       lpeversion="1"
       nodesatellites_param="F,0,0,1,0,1.4748336,0,1 @ F,0,1,1,0,1.4748336,0,1 @ F,0,1,1,0,1.4748336,0,1 @ F,0,1,1,0,1.4748336,0,1"
       radius="0"
       unit="px"
       method="auto"
       mode="F"
       chamfer_steps="1"
       flexible="false"
       use_knot_distance="true"
       apply_no_radius="true"
       apply_with_radius="true"
       only_selected="false"
       hide_knots="false" /><inkscape:path-effect
       effect="fillet_chamfer"
       id="path-effect9"
       is_visible="true"
       lpeversion="1"
       nodesatellites_param="F,0,1,1,0,1.1434177,0,1 @ F,0,0,1,0,1.1434177,0,1 @ F,0,1,1,0,1.1434177,0,1 @ F,0,1,1,0,1.1434177,0,1"
       radius="0"
       unit="px"
       method="auto"
       mode="F"
       chamfer_steps="1"
       flexible="false"
       use_knot_distance="true"
       apply_no_radius="true"
       apply_with_radius="true"
       only_selected="false"
       hide_knots="false" /><inkscape:path-effect
       effect="fillet_chamfer"
       id="path-effect6"
       is_visible="true"
       lpeversion="1"
       nodesatellites_param="F,0,0,1,0,5.3112383,0,1 @ F,0,0,1,0,4.4306891,0,1 @ F,0,0,1,0,4.9624877,0,1 @ F,0,0,1,0,5.1302095,0,1"
       radius="0"
       unit="px"
       method="auto"
       mode="F"
       chamfer_steps="1"
       flexible="false"
       use_knot_distance="true"
       apply_no_radius="true"
       apply_with_radius="true"
       only_selected="false"
       hide_knots="false" /><inkscape:path-effect
       effect="fillet_chamfer"
       id="path-effect5"
       is_visible="true"
       lpeversion="1"
       nodesatellites_param="F,0,0,1,0,0,0,1 @ F,0,0,1,0,0,0,1 @ F,0,0,1,0,0,0,1 @ F,0,0,1,0,0,0,1 @ F,0,0,1,0,0,0,1 @ F,0,0,1,0,0,0,1 @ F,0,0,1,0,0,0,1 @ F,0,0,1,0,0,0,1 @ F,0,0,1,0,2.1370099,0,1 @ F,0,0,1,0,0,0,1 @ F,0,0,1,0,0,0,1 @ F,0,0,1,0,0,0,1 @ F,0,0,1,0,0,0,1 @ F,0,0,1,0,2.1410089,0,1 @ F,0,0,1,0,0,0,1 @ F,0,0,1,0,0,0,1"
       radius="0"
       unit="px"
       method="auto"
       mode="F"
       chamfer_steps="1"
       flexible="false"
       use_knot_distance="true"
       apply_no_radius="true"
       apply_with_radius="true"
       only_selected="false"
       hide_knots="false" /><inkscape:path-effect
       effect="fillet_chamfer"
       id="path-effect4"
       is_visible="true"
       lpeversion="1"
       nodesatellites_param="F,0,0,1,0,0,0,1 @ F,0,0,1,0,0,0,1 @ F,0,0,1,0,2.5562817,0,1 @ F,0,0,1,0,2.2192563,0,1"
       radius="0"
       unit="px"
       method="auto"
       mode="F"
       chamfer_steps="1"
       flexible="false"
       use_knot_distance="true"
       apply_no_radius="true"
       apply_with_radius="true"
       only_selected="false"
       hide_knots="false" /><inkscape:path-effect
       effect="fillet_chamfer"
       id="path-effect3"
       is_visible="true"
       lpeversion="1"
       nodesatellites_param="F,0,0,1,0,2.7117078,0,1 @ F,0,0,1,0,2.5128279,0,1 @ F,0,0,1,0,1.7677816,0,1 @ F,0,0,1,0,1.9056209,0,1"
       radius="0.080609024"
       unit="mm"
       method="auto"
       mode="F"
       chamfer_steps="1"
       flexible="false"
       use_knot_distance="true"
       apply_no_radius="true"
       apply_with_radius="true"
       only_selected="false"
       hide_knots="false" /><inkscape:path-effect
       effect="bspline"
       id="path-effect2"
       is_visible="true"
       lpeversion="1.3"
       weight="33.333333"
       steps="2"
       helper_size="0"
       apply_no_weight="true"
       apply_with_weight="true"
       only_selected="false"
       uniform="false" /></defs><g
     inkscape:label="Layer 1"
     inkscape:groupmode="layer"
     id="layer1"
     transform="translate(-494.68291,-812.62907)"><path
       style="opacity:1;fill:#d5bb72;fill-rule:evenodd;stroke:#000000;stroke-width:1.00157;paint-order:stroke fill markers"
       d="m 548.91,832.17259 c -3.8706,-0.10098 -10.38891,-0.25112 -13.9621,-0.15377 -3.57319,0.0974 -4.20084,0.44216 -7.45833,3.53996 -3.25749,3.0978 -9.1444,8.94819 -12.56938,12.67259 -3.42498,3.72441 -4.38755,5.32233 -3.83229,7.03567 0.55527,1.71334 2.62835,3.54194 5.11596,5.75212 2.48761,2.21019 5.38951,4.80175 7.15527,6.42952 1.76576,1.62778 2.39513,2.29153 3.14993,2.21393 0.75479,-0.0776 1.63494,-0.8966 2.50754,-1.66652 0.87259,-0.76993 1.73759,-1.49076 2.73958,-1.8584 1.002,-0.36764 2.14092,-0.38208 3.08524,-0.0217 0.94432,0.36042 1.69398,1.09566 2.30846,1.72543 0.61448,0.62977 1.09371,1.15401 1.59351,0.96796 0.49979,-0.18606 1.02008,-1.08237 2.03009,-1.66482 1.01001,-0.58245 2.50962,-0.85096 4.06145,-0.67678 1.55182,0.17418 3.1557,0.79104 3.98441,1.6614 0.8287,0.87035 0.88214,1.9941 0.88869,2.94085 0.007,0.94675 -0.0338,1.71636 0.43772,1.93553 0.47154,0.21917 1.4549,-0.11213 2.40149,-0.0175 0.9466,0.0946 1.8563,0.61523 2.42892,1.27596 0.57263,0.66072 0.80808,1.46149 1.06883,2.7171 0.26074,1.25562 0.54675,2.96596 0.61767,4.05182 0.0709,1.08587 -0.0732,1.5472 0.53229,2.36898 0.60553,0.82178 1.9607,2.00395 2.44366,3.07802 0.48296,1.07408 0.0937,2.04 0.68483,3.42405 0.59111,1.38404 2.16253,3.18613 3.46007,4.43321 1.29754,1.24707 2.32112,1.93907 3.40962,2.1337 1.08849,0.19463 2.24182,-0.10812 2.9843,-0.71365 0.74248,-0.60552 1.07406,-1.51377 1.01639,-2.29229 -0.0577,-0.77853 -0.50459,-1.42728 -1.47775,-2.31394 -0.97316,-0.88665 -2.4725,-2.01116 -3.8205,-3.20778 -1.348,-1.19662 -2.54458,-2.46529 -3.41681,-3.70516 -0.87224,-1.23987 -1.42007,-2.45087 -0.89347,-2.72486 0.5266,-0.27399 2.12754,0.38901 3.61398,1.28237 1.48644,0.89336 2.8582,2.01696 3.9893,3.07575 1.13111,1.0588 2.02142,2.05266 2.98796,2.8073 0.96653,0.75465 2.00916,1.26999 2.84717,1.42516 0.83802,0.15516 1.47131,-0.0499 1.95336,-0.65684 0.48204,-0.60698 0.81277,-1.61583 0.73916,-2.56299 -0.0736,-0.94716 -0.55157,-1.83255 -1.46095,-2.74382 -0.90938,-0.91126 -2.25013,-1.84835 -3.55488,-2.97289 -1.30475,-1.12454 -2.57342,-2.43645 -3.43166,-3.53367 -0.85824,-1.09723 -1.306,-1.97968 -1.15732,-2.50577 0.14868,-0.5261 0.89379,-0.69577 1.98542,-0.16729 1.09163,0.52848 2.52965,1.75505 3.95965,2.97564 1.43001,1.22059 2.85184,2.43507 3.93043,3.0615 1.0786,0.62643 1.81385,0.66473 2.26456,0.23053 0.45072,-0.43419 0.61687,-1.34082 0.70885,-2.331 0.092,-0.99017 0.1098,-2.06381 -0.47966,-3.12049 -0.58946,-1.05668 -1.78618,-2.0964 -2.97383,-2.17695 -1.18766,-0.0805 -2.36616,0.79807 -4.16426,0.11921 -1.79809,-0.67886 -4.21558,-2.91511 -8.09386,-6.94089 -3.87828,-4.02578 -9.21701,-9.84073 -12.34777,-12.90685 -3.13077,-3.06612 -4.05344,-3.38329 -4.94009,-3.40491 -0.88665,-0.0216 -1.73724,0.2523 -2.58785,0.0216 -0.85061,-0.23068 -1.70119,-0.96594 -2.42205,-1.98235 -0.72085,-1.01641 -1.31193,-2.31391 -0.8722,-4.01514 0.43973,-1.70122 1.91023,-3.80606 3.34044,-5.34621 1.43021,-1.54015 2.82,-2.51551 4.08792,-3.33344 1.26792,-0.81793 2.41381,-1.4783 3.34665,-2.02434 0.93284,-0.54603 1.65251,-0.97765 1.401,-1.21938 -0.2515,-0.24174 -1.47416,-0.29357 -5.34476,-0.39456 z"
       id="path17"
       sodipodi:nodetypes="cccccccccccccccccccccccccccccccccccccccccccccccccccccccccccccc" /><path
       style="opacity:1;fill:#d5bb72;fill-rule:evenodd;stroke:#000000;stroke-width:1.00157;paint-order:stroke fill markers"
       d="m 546.93403,842.02446 c -0.35171,0.52501 -1.05512,1.57503 -1.11119,2.60977 -0.0561,1.03473 0.5352,2.05414 1.2641,2.77285 0.72891,0.71871 1.59541,1.13666 2.47214,1.0653 0.87672,-0.0714 1.76361,-0.63204 2.85952,-1.62091 1.09591,-0.98886 2.40075,-2.40585 3.63938,-3.11945 1.23862,-0.71361 2.41094,-0.72381 3.92992,0.0357 1.51898,0.75949 3.3845,2.28861 4.82701,3.71583 1.44251,1.42722 2.46193,2.75246 3.54254,3.38451 1.08061,0.63205 2.22235,0.57088 3.63939,0.50972 1.41703,-0.0612 3.10925,-0.12233 4.57215,0.17841 1.46291,0.30074 2.6964,0.96336 3.54763,1.83498 0.85123,0.87163 1.32016,1.95221 1.44249,2.83403 0.12233,0.88181 -0.10194,1.56482 -0.42306,1.89105 -0.32113,0.32622 -0.73909,0.29566 -1.19275,0.0408 -0.45365,-0.25485 -0.94297,-0.73398 -1.64639,-1.39662 -0.70341,-0.66264 -1.62089,-1.50875 -3.01243,-1.72793 -1.39155,-0.21917 -3.25708,0.1886 -4.8576,0.31602 -1.60053,0.12743 -2.93596,-0.0255 -4.02676,-0.67284 -1.09081,-0.64735 -1.93692,-1.78909 -2.885,-3.0583 -0.94809,-1.26921 -1.99809,-2.66581 -2.98185,-3.52214 -0.98376,-0.85632 -1.90124,-1.17234 -2.81874,-1.00413 -0.9175,0.16821 -1.83497,0.82064 -2.48231,1.57503 -0.64735,0.75439 -1.02453,1.6107 -0.65753,2.62504 0.36701,1.01435 1.47817,2.18668 4.87295,5.58145 3.39477,3.39478 9.07291,9.01175 12.37079,11.84578 3.29788,2.83402 4.21535,2.885 5.2195,2.66581 1.00416,-0.21918 2.09493,-0.7085 5.06153,-3.25204 2.96661,-2.54353 7.80882,-7.14109 10.36761,-9.75084 2.55878,-2.60976 2.83402,-3.23161 2.58425,-4.20008 -0.24977,-0.96848 -1.02452,-2.28352 -4.09307,-5.71398 -3.06856,-3.43045 -8.43067,-8.97606 -11.51957,-12.02927 -3.08889,-3.05321 -3.90442,-3.61389 -4.88819,-3.7719 -0.98376,-0.15801 -2.1357,0.0866 -5.17877,0.12232 -3.04306,0.0357 -7.97702,-0.13762 -10.61226,-0.0408 -2.63524,0.0968 -2.97165,0.46384 -4.50083,1.96754 -1.52918,1.50369 -4.25101,4.14397 -5.61195,5.46414 -1.36095,1.32017 -1.36095,1.32013 -1.71265,1.84514 z"
       id="path18" /><path
       style="opacity:1;fill:#d5bb72;fill-rule:evenodd;stroke:#000000;stroke-width:1.00157;paint-order:stroke fill markers"
       d="m 528.20701,871.73078 c 1.09589,-0.87161 2.5333,-2.09494 3.83819,-2.3396 1.30488,-0.24465 2.47721,0.48933 2.98183,1.29979 0.50462,0.81046 0.34151,1.69735 -0.34152,2.83913 -0.68304,1.14178 -1.88595,2.53838 -3.02772,3.17552 -1.14178,0.63714 -2.22236,0.51481 -3.22141,-0.12234 -0.99906,-0.63716 -1.91653,-1.7891 -1.99808,-2.62504 -0.0815,-0.83594 0.67282,-1.35584 1.76871,-2.22746 z"
       id="path19" /><path
       style="opacity:1;fill:#d5bb72;fill-rule:evenodd;stroke:#000000;stroke-width:1.00157;paint-order:stroke fill markers"
       d="m 539.96111,872.46985 c 1.18766,-1.11121 1.25898,-1.19272 2.00319,-1.50875 0.7442,-0.31603 2.16118,-0.86651 3.17553,-0.54537 1.01434,0.32113 1.62599,1.51384 1.47816,2.66582 -0.14783,1.15197 -1.05511,2.26313 -2.78817,4.05226 -1.73306,1.78913 -4.29179,4.25611 -6.12169,5.30613 -1.8299,1.05001 -2.93086,0.68303 -3.65467,0.0917 -0.7238,-0.59128 -1.0704,-1.40681 -0.98884,-2.22237 0.0816,-0.81555 0.59127,-1.63108 1.99811,-3.10928 1.40684,-1.4782 3.71072,-3.61897 4.89838,-4.73018 z"
       id="path20" /><path
       style="opacity:1;fill:#d5bb72;fill-rule:evenodd;stroke:#000000;stroke-width:1.00157;paint-order:stroke fill markers"
       d="m 550.65686,875.80306 c 0.8295,1e-5 1.82611,0.34986 2.33167,1.18434 0.50556,0.83448 0.56672,2.16991 -0.19277,3.70418 -0.75949,1.53426 -2.33959,3.26727 -4.02677,4.92387 -1.68718,1.65659 -3.48135,3.23668 -4.98503,4.02165 -1.50368,0.78496 -2.71678,0.77476 -3.63428,0.15289 -0.9175,-0.62187 -1.53934,-1.85536 -1.33544,-3.05321 0.2039,-1.19785 1.2335,-2.35998 2.95127,-4.06246 1.71777,-1.70248 4.12359,-3.94519 5.70371,-5.23476 1.58013,-1.28957 2.35814,-1.6365 3.18764,-1.6365 z"
       id="path21"
       sodipodi:nodetypes="cccccccccc" /><path
       style="opacity:1;fill:#d5bb72;fill-rule:evenodd;stroke:#000000;stroke-width:1.00157;paint-order:stroke fill markers"
       d="m 554.73779,886.68589 c 0.69322,0.79006 1.34566,2.17649 1.19783,3.38963 -0.14783,1.21313 -1.09588,2.25294 -2.19179,3.38452 -1.09591,1.13158 -2.33959,2.35488 -3.51705,2.80853 -1.17745,0.45364 -2.28861,0.13762 -3.16533,-0.45366 -0.87673,-0.59128 -1.51895,-1.45778 -1.47817,-2.5129 0.0408,-1.05513 0.76457,-2.29882 2.04398,-3.6292 1.27941,-1.33037 3.11435,-2.74736 4.39885,-3.35902 1.28449,-0.61165 2.01847,-0.41796 2.71168,0.3721 z"
       id="path22" /><path
       style="opacity:1;fill:#d5bb72;fill-rule:evenodd;stroke:#000000;stroke-width:1.00157;paint-order:stroke fill markers"
       d="m 559.20292,893.17459 c -0.79516,-0.32622 -1.96751,0.13252 -2.96656,0.90221 -0.99906,0.76968 -1.82479,1.85026 -1.81458,2.80344 0.0102,0.95318 0.85631,1.7789 1.66677,1.98788 0.81046,0.20899 1.58521,-0.19878 2.37018,-0.82574 0.78498,-0.62696 1.58012,-1.47308 1.76871,-2.45174 0.1886,-0.97867 -0.22936,-2.08983 -1.02452,-2.41605 z"
       id="path23" /></g></svg>
