<?xml version="1.0" encoding="UTF-8" standalone="no"?>
<!-- Created with Inkscape (http://www.inkscape.org/) -->

<svg
   width="31.581846mm"
   height="29.518829mm"
   viewBox="0 0 119.36446 111.56723"
   version="1.1"
   id="svg1"
   xml:space="preserve"
   inkscape:version="1.4.2 (f4327f4, 2025-05-13)"
   sodipodi:docname="Taming.svg"
   xmlns:inkscape="http://www.inkscape.org/namespaces/inkscape"
   xmlns:sodipodi="http://sodipodi.sourceforge.net/DTD/sodipodi-0.dtd"
   xmlns="http://www.w3.org/2000/svg"
   xmlns:svg="http://www.w3.org/2000/svg"><sodipodi:namedview
     id="namedview1"
     pagecolor="#505050"
     bordercolor="#eeeeee"
     borderopacity="1"
     inkscape:showpageshadow="0"
     inkscape:pageopacity="0"
     inkscape:pagecheckerboard="0"
     inkscape:deskcolor="#505050"
     inkscape:document-units="mm"
     inkscape:zoom="5.780221"
     inkscape:cx="18.338399"
     inkscape:cy="41.434402"
     inkscape:window-width="2560"
     inkscape:window-height="1369"
     inkscape:window-x="2552"
     inkscape:window-y="-8"
     inkscape:window-maximized="1"
     inkscape:current-layer="layer1" /><defs
     id="defs1"><inkscape:path-effect
       effect="bspline"
       id="path-effect33"
       is_visible="true"
       lpeversion="1.3"
       weight="33.333333"
       steps="2"
       helper_size="0"
       apply_no_weight="true"
       apply_with_weight="true"
       only_selected="false"
       uniform="false" /><inkscape:path-effect
       effect="bspline"
       id="path-effect32"
       is_visible="true"
       lpeversion="1.3"
       weight="33.333333"
       steps="2"
       helper_size="0"
       apply_no_weight="true"
       apply_with_weight="true"
       only_selected="false"
       uniform="false" /><inkscape:path-effect
       effect="bspline"
       id="path-effect31"
       is_visible="true"
       lpeversion="1.3"
       weight="33.333333"
       steps="2"
       helper_size="0"
       apply_no_weight="true"
       apply_with_weight="true"
       only_selected="false"
       uniform="false" /><inkscape:path-effect
       effect="bspline"
       id="path-effect30"
       is_visible="true"
       lpeversion="1.3"
       weight="33.333333"
       steps="2"
       helper_size="0"
       apply_no_weight="true"
       apply_with_weight="true"
       only_selected="false"
       uniform="false" /><inkscape:path-effect
       effect="bspline"
       id="path-effect29"
       is_visible="true"
       lpeversion="1.3"
       weight="33.333333"
       steps="2"
       helper_size="0"
       apply_no_weight="true"
       apply_with_weight="true"
       only_selected="false"
       uniform="false" /><inkscape:path-effect
       effect="bspline"
       id="path-effect28"
       is_visible="true"
       lpeversion="1.3"
       weight="33.333333"
       steps="2"
       helper_size="0"
       apply_no_weight="true"
       apply_with_weight="true"
       only_selected="false"
       uniform="false" /><inkscape:path-effect
       effect="bspline"
       id="path-effect27"
       is_visible="true"
       lpeversion="1.3"
       weight="33.333333"
       steps="2"
       helper_size="0"
       apply_no_weight="true"
       apply_with_weight="true"
       only_selected="false"
       uniform="false" /><inkscape:path-effect
       effect="bspline"
       id="path-effect26"
       is_visible="true"
       lpeversion="1.3"
       weight="33.333333"
       steps="2"
       helper_size="0"
       apply_no_weight="true"
       apply_with_weight="true"
       only_selected="false"
       uniform="false" /><inkscape:path-effect
       effect="bspline"
       id="path-effect25"
       is_visible="true"
       lpeversion="1.3"
       weight="33.333333"
       steps="2"
       helper_size="0"
       apply_no_weight="true"
       apply_with_weight="true"
       only_selected="false"
       uniform="false" /><inkscape:path-effect
       effect="bspline"
       id="path-effect24"
       is_visible="true"
       lpeversion="1.3"
       weight="33.333333"
       steps="2"
       helper_size="0"
       apply_no_weight="true"
       apply_with_weight="true"
       only_selected="false"
       uniform="false" /><inkscape:path-effect
       effect="bspline"
       id="path-effect23"
       is_visible="true"
       lpeversion="1.3"
       weight="33.333333"
       steps="2"
       helper_size="0"
       apply_no_weight="true"
       apply_with_weight="true"
       only_selected="false"
       uniform="false" /><inkscape:path-effect
       effect="bspline"
       id="path-effect22"
       is_visible="true"
       lpeversion="1.3"
       weight="33.333333"
       steps="2"
       helper_size="0"
       apply_no_weight="true"
       apply_with_weight="true"
       only_selected="false"
       uniform="false" /><inkscape:path-effect
       effect="bspline"
       id="path-effect21"
       is_visible="true"
       lpeversion="1.3"
       weight="33.333333"
       steps="2"
       helper_size="0"
       apply_no_weight="true"
       apply_with_weight="true"
       only_selected="false"
       uniform="false" /><inkscape:path-effect
       effect="bspline"
       id="path-effect20"
       is_visible="true"
       lpeversion="1.3"
       weight="33.333333"
       steps="2"
       helper_size="0"
       apply_no_weight="true"
       apply_with_weight="true"
       only_selected="false"
       uniform="false" /><inkscape:path-effect
       effect="bspline"
       id="path-effect19"
       is_visible="true"
       lpeversion="1.3"
       weight="33.333333"
       steps="2"
       helper_size="0"
       apply_no_weight="true"
       apply_with_weight="true"
       only_selected="false"
       uniform="false" /><inkscape:path-effect
       effect="bspline"
       id="path-effect18"
       is_visible="true"
       lpeversion="1.3"
       weight="33.333333"
       steps="2"
       helper_size="0"
       apply_no_weight="true"
       apply_with_weight="true"
       only_selected="false"
       uniform="false" /><inkscape:path-effect
       effect="bspline"
       id="path-effect17"
       is_visible="true"
       lpeversion="1.3"
       weight="33.333333"
       steps="2"
       helper_size="0"
       apply_no_weight="true"
       apply_with_weight="true"
       only_selected="false"
       uniform="false" /><inkscape:path-effect
       effect="bspline"
       id="path-effect16"
       is_visible="true"
       lpeversion="1.3"
       weight="33.333333"
       steps="2"
       helper_size="0"
       apply_no_weight="true"
       apply_with_weight="true"
       only_selected="false"
       uniform="false" /><inkscape:path-effect
       effect="bspline"
       id="path-effect15"
       is_visible="true"
       lpeversion="1.3"
       weight="33.333333"
       steps="2"
       helper_size="0"
       apply_no_weight="true"
       apply_with_weight="true"
       only_selected="false"
       uniform="false" /><inkscape:path-effect
       effect="bspline"
       id="path-effect14"
       is_visible="true"
       lpeversion="1.3"
       weight="33.333333"
       steps="2"
       helper_size="0"
       apply_no_weight="true"
       apply_with_weight="true"
       only_selected="false"
       uniform="false" /><inkscape:path-effect
       effect="bspline"
       id="path-effect13"
       is_visible="true"
       lpeversion="1.3"
       weight="33.333333"
       steps="2"
       helper_size="0"
       apply_no_weight="true"
       apply_with_weight="true"
       only_selected="false"
       uniform="false" /><inkscape:path-effect
       effect="bspline"
       id="path-effect12"
       is_visible="true"
       lpeversion="1.3"
       weight="33.333333"
       steps="2"
       helper_size="0"
       apply_no_weight="true"
       apply_with_weight="true"
       only_selected="false"
       uniform="false" /><inkscape:path-effect
       effect="fillet_chamfer"
       id="path-effect11"
       is_visible="true"
       lpeversion="1"
       nodesatellites_param="F,0,0,1,0,1.2983296,0,1 @ F,0,1,1,0,1.2983296,0,1 @ F,0,1,1,0,1.2983296,0,1 @ F,0,1,1,0,1.2983296,0,1"
       radius="0"
       unit="px"
       method="auto"
       mode="F"
       chamfer_steps="1"
       flexible="false"
       use_knot_distance="true"
       apply_no_radius="true"
       apply_with_radius="true"
       only_selected="false"
       hide_knots="false" /><inkscape:path-effect
       effect="fillet_chamfer"
       id="path-effect10"
       is_visible="true"
       lpeversion="1"
       nodesatellites_param="F,0,0,1,0,1.4748336,0,1 @ F,0,1,1,0,1.4748336,0,1 @ F,0,1,1,0,1.4748336,0,1 @ F,0,1,1,0,1.4748336,0,1"
       radius="0"
       unit="px"
       method="auto"
       mode="F"
       chamfer_steps="1"
       flexible="false"
       use_knot_distance="true"
       apply_no_radius="true"
       apply_with_radius="true"
       only_selected="false"
       hide_knots="false" /><inkscape:path-effect
       effect="fillet_chamfer"
       id="path-effect9"
       is_visible="true"
       lpeversion="1"
       nodesatellites_param="F,0,1,1,0,1.1434177,0,1 @ F,0,0,1,0,1.1434177,0,1 @ F,0,1,1,0,1.1434177,0,1 @ F,0,1,1,0,1.1434177,0,1"
       radius="0"
       unit="px"
       method="auto"
       mode="F"
       chamfer_steps="1"
       flexible="false"
       use_knot_distance="true"
       apply_no_radius="true"
       apply_with_radius="true"
       only_selected="false"
       hide_knots="false" /><inkscape:path-effect
       effect="fillet_chamfer"
       id="path-effect6"
       is_visible="true"
       lpeversion="1"
       nodesatellites_param="F,0,0,1,0,5.3112383,0,1 @ F,0,0,1,0,4.4306891,0,1 @ F,0,0,1,0,4.9624877,0,1 @ F,0,0,1,0,5.1302095,0,1"
       radius="0"
       unit="px"
       method="auto"
       mode="F"
       chamfer_steps="1"
       flexible="false"
       use_knot_distance="true"
       apply_no_radius="true"
       apply_with_radius="true"
       only_selected="false"
       hide_knots="false" /><inkscape:path-effect
       effect="fillet_chamfer"
       id="path-effect5"
       is_visible="true"
       lpeversion="1"
       nodesatellites_param="F,0,0,1,0,0,0,1 @ F,0,0,1,0,0,0,1 @ F,0,0,1,0,0,0,1 @ F,0,0,1,0,0,0,1 @ F,0,0,1,0,0,0,1 @ F,0,0,1,0,0,0,1 @ F,0,0,1,0,0,0,1 @ F,0,0,1,0,0,0,1 @ F,0,0,1,0,2.1370099,0,1 @ F,0,0,1,0,0,0,1 @ F,0,0,1,0,0,0,1 @ F,0,0,1,0,0,0,1 @ F,0,0,1,0,0,0,1 @ F,0,0,1,0,2.1410089,0,1 @ F,0,0,1,0,0,0,1 @ F,0,0,1,0,0,0,1"
       radius="0"
       unit="px"
       method="auto"
       mode="F"
       chamfer_steps="1"
       flexible="false"
       use_knot_distance="true"
       apply_no_radius="true"
       apply_with_radius="true"
       only_selected="false"
       hide_knots="false" /><inkscape:path-effect
       effect="fillet_chamfer"
       id="path-effect4"
       is_visible="true"
       lpeversion="1"
       nodesatellites_param="F,0,0,1,0,0,0,1 @ F,0,0,1,0,0,0,1 @ F,0,0,1,0,2.5562817,0,1 @ F,0,0,1,0,2.2192563,0,1"
       radius="0"
       unit="px"
       method="auto"
       mode="F"
       chamfer_steps="1"
       flexible="false"
       use_knot_distance="true"
       apply_no_radius="true"
       apply_with_radius="true"
       only_selected="false"
       hide_knots="false" /><inkscape:path-effect
       effect="fillet_chamfer"
       id="path-effect3"
       is_visible="true"
       lpeversion="1"
       nodesatellites_param="F,0,0,1,0,2.7117078,0,1 @ F,0,0,1,0,2.5128279,0,1 @ F,0,0,1,0,1.7677816,0,1 @ F,0,0,1,0,1.9056209,0,1"
       radius="0.080609024"
       unit="mm"
       method="auto"
       mode="F"
       chamfer_steps="1"
       flexible="false"
       use_knot_distance="true"
       apply_no_radius="true"
       apply_with_radius="true"
       only_selected="false"
       hide_knots="false" /><inkscape:path-effect
       effect="bspline"
       id="path-effect2"
       is_visible="true"
       lpeversion="1.3"
       weight="33.333333"
       steps="2"
       helper_size="0"
       apply_no_weight="true"
       apply_with_weight="true"
       only_selected="false"
       uniform="false" /><inkscape:path-effect
       effect="bspline"
       id="path-effect28-1"
       is_visible="true"
       lpeversion="1.3"
       weight="33.333333"
       steps="2"
       helper_size="0"
       apply_no_weight="true"
       apply_with_weight="true"
       only_selected="false"
       uniform="false" /></defs><g
     inkscape:label="Layer 1"
     inkscape:groupmode="layer"
     id="layer1"
     transform="translate(-494.68291,-812.62907)"><path
       style="opacity:1;fill:#d5bb72;fill-rule:evenodd;stroke:#000000;stroke-width:1.00157;paint-order:stroke fill markers"
       d="m 564.57838,882.41065 c -0.18187,-0.22006 -0.53897,-0.65215 -1.32652,-1.60008 -0.78754,-0.94794 -2.00212,-2.4076 -2.54457,-2.10663 -0.54245,0.30096 -0.41271,2.36249 -0.32234,6.10151 0.0904,3.73902 0.14134,9.15506 -0.0389,11.82479 -0.18022,2.66974 -0.5916,2.59283 -2.42142,2.54593 -1.82982,-0.0469 -5.07781,-0.0638 -7.11911,-0.067 -2.04131,-0.003 -2.87558,0.007 -3.21932,-1.74875 -0.34375,-1.75605 -0.19691,-5.27858 -0.0587,-8.59381 0.1382,-3.31522 0.26775,-6.42315 0.23161,-8.04921 -0.0361,-1.62606 -0.23798,-1.77023 -1.02372,-1.09982 -0.78574,0.6704 -2.15532,2.15532 -3.4817,4.16651 -1.32637,2.0112 -2.60946,4.54853 -3.2366,7.66264 -0.62714,3.1141 -0.5983,6.80478 -0.35321,9.11872 0.2451,2.31393 0.70643,3.25101 1.47775,3.87094 0.77132,0.61993 1.85257,0.92268 6.01915,1.11011 4.16658,0.18742 11.41818,0.2595 15.47657,0.0577 4.05838,-0.20184 4.92338,-0.67759 5.40635,-3.20061 0.48297,-2.52302 0.58389,-7.09311 0.3388,-10.22882 -0.2451,-3.13571 -0.83618,-4.83688 -1.54825,-6.25789 -0.71207,-1.42101 -1.33562,-2.27494 -1.70481,-2.78054 -0.3692,-0.5056 -0.3692,-0.50558 -0.55107,-0.72564 z"
       id="path28"
       sodipodi:nodetypes="scccccccccccccccccccs" /><path
       style="opacity:1;fill:#d5bb72;fill-rule:evenodd;stroke:#000000;stroke-width:1.00157;paint-order:stroke fill markers"
       d="m 558.37207,894.13285 c -0.0153,0.33642 -0.0459,1.00924 -0.47408,1.46289 -0.42818,0.45366 -1.25391,0.68812 -2.52822,0.73909 -1.27431,0.051 -2.99712,-0.0815 -4.04204,-0.47914 -1.04492,-0.39758 -1.41191,-1.0602 -1.60051,-6.74366 -0.1886,-5.68345 -0.1988,-16.3873 -0.0663,-21.85147 0.13252,-5.46417 0.40777,-5.68845 1.75854,-5.80568 1.35078,-0.11724 3.77698,-0.12744 5.08186,-0.0153 1.30488,0.11214 1.48837,0.3466 1.6158,5.7599 0.12743,5.41331 0.19879,16.00502 0.23447,21.30098 0.0357,5.29596 0.0358,5.29598 0.0204,5.63239 z"
       id="path29" /><path
       style="opacity:1;fill:#d5bb72;fill-rule:evenodd;stroke:#000000;stroke-width:1.00157;paint-order:stroke fill markers"
       d="m 535.53675,842.34558 c -0.95318,0.14272 -2.85952,0.42817 -3.28767,1.09591 -0.42815,0.66774 0.62184,1.71773 2.03378,2.67601 1.41193,0.95828 3.18571,1.82478 4.44982,3.86878 1.26411,2.044 2.01847,5.26534 2.84422,6.86077 0.82575,1.59542 1.72284,1.56486 5.9026,1.62603 4.17975,0.0612 11.64186,0.21409 15.531,0.0714 3.88915,-0.14272 4.20517,-0.58107 4.31221,-2.3804 0.10704,-1.79934 0.005,-4.95952 0.3874,-7.21248 0.38229,-2.25297 1.24879,-3.5986 2.07454,-4.8729 0.82575,-1.27431 1.6107,-2.47721 1.94202,-3.54253 0.33131,-1.06532 0.20898,-1.99299 -0.22938,-1.93691 -0.43836,0.0561 -1.19273,1.09588 -1.9777,1.82988 -0.78498,0.734 -1.60051,1.16215 -7.11066,1.40681 -5.51014,0.24467 -15.71447,0.30583 -20.81674,0.33642 -5.10227,0.0306 -5.10227,0.0305 -6.05544,0.17325 z"
       id="path30" /><path
       style="opacity:1;fill:#d5bb72;fill-rule:evenodd;stroke:#000000;stroke-width:1.00157;paint-order:stroke fill markers"
       d="m 564.72001,862.3118 c -1.21045,-0.0162 -1.32577,0.0414 -1.88083,0.0198 -0.55507,-0.0216 -1.54982,-0.12254 -2.01837,0.21626 -0.46855,0.33881 -0.41089,1.11731 -0.36727,3.12851 0.0436,2.0112 0.0732,5.25489 0.10499,7.23938 0.0318,1.98449 0.0659,2.70953 0.8729,2.97625 0.80701,0.26672 2.38687,0.0751 5.0341,0.0848 2.64722,0.01 6.36156,0.22094 9.01791,-0.42659 2.65635,-0.64752 4.2544,-2.15367 5.67735,-4.10772 1.42295,-1.95406 2.67063,-4.35577 3.09521,-7.90614 0.42459,-3.55037 0.026,-8.24897 0.96285,-11.96558 0.93683,-3.71661 3.20897,-6.45083 4.89291,-8.74789 1.68395,-2.29705 2.77962,-4.1568 2.90215,-6.31937 0.12254,-2.16258 -0.72804,-4.62783 -2.38806,-6.0399 -1.66001,-1.41207 -4.12928,-1.77088 -6.26479,-1.53949 -2.13551,0.23139 -3.93698,1.05295 -5.36043,3.01122 -1.42345,1.95828 -2.4687,5.05304 -3.84424,7.97211 -1.37553,2.91907 -3.08119,5.66211 -3.79667,8.32377 -0.71548,2.66166 -0.44069,5.24167 -0.33308,7.01924 0.10761,1.77757 0.048,2.75258 -0.0607,3.82848 -0.10871,1.0759 -0.26657,2.25256 -1.49829,2.79585 -1.23173,0.5433 -3.53723,0.45317 -4.74767,0.43695 z"
       id="path31"
       sodipodi:nodetypes="cccccccccccccccccccccc" /><path
       style="opacity:1;fill:#d5bb72;fill-rule:evenodd;stroke:#000000;stroke-width:1.00157;paint-order:stroke fill markers"
       d="m 540.3077,861.80659 c 0.42308,0.13253 1.02452,0.14272 2.30904,0.1631 1.28452,0.0204 3.25197,0.051 4.16437,0.36188 0.91239,0.31093 0.76967,0.90219 0.72889,3.14499 -0.0408,2.24279 0.0204,6.13695 -0.11214,8.25738 -0.13253,2.12043 -0.45874,2.46703 -2.90543,2.65054 -2.44669,0.1835 -7.01366,0.2039 -10.06179,-0.44855 -3.04812,-0.65245 -4.57724,-1.97768 -5.77508,-3.53744 -1.19785,-1.55975 -2.06433,-3.35387 -2.20303,-5.3775 -0.13869,-2.02362 0.45042,-4.27647 -0.14851,-6.00467 -0.59892,-1.72819 -2.38581,-2.93149 -4.39435,-4.07538 -2.00854,-1.14388 -4.23849,-2.2282 -5.3595,-4.2204 -1.12101,-1.9922 -1.13295,-4.89205 -1.08569,-7.41639 0.0473,-2.52435 0.15372,-4.67288 1.06567,-6.21028 0.91194,-1.5374 2.62925,-2.46348 4.11589,-2.98916 1.48664,-0.52568 2.74241,-0.65091 4.25215,-0.31636 1.50974,0.33455 3.27322,1.12882 4.2131,2.42475 0.93988,1.29593 1.05603,3.09334 0.85892,4.75433 -0.19711,1.661 -0.70745,3.18538 -0.1901,4.13181 0.51735,0.94644 2.06231,1.31487 3.41818,2.08965 1.35587,0.77479 2.52253,1.95586 3.49836,3.5047 0.97583,1.54883 1.76076,3.46529 2.17874,4.9384 0.41798,1.47312 0.46895,2.50271 0.61677,3.14496 0.14781,0.64226 0.39247,0.89711 0.81554,1.02964 z"
       id="path32"
       sodipodi:nodetypes="cccccccccccccccccccccccc" /></g></svg>
